<svg xmlns="http://www.w3.org/2000/svg" viewBox="0 0 180 180">
  <rect width="180" height="180" rx="40" fill="#faf5ff" />
  <g transform="translate(22, 24) scale(4.25)">
    <path d="M16 27 Q11 24 7 19 Q3 14 2 7 Q6 13 10 16 Q13 18.5 16 20Z" fill="#7c3aed"/>
    <path d="M16 27 Q21 24 25 19 Q29 14 30 7 Q26 13 22 16 Q19 18.5 16 20Z" fill="#7c3aed"/>
    <path d="M14 27 Q15 24 16 20 Q17 24 18 27Z" fill="#6d28d9"/>
    <path d="M9 16 Q12.5 18.5 16 20 Q19.5 18.5 23 16" stroke="#a78bfa" stroke-width="0.8" fill="none" stroke-linecap="round" opacity="0.6"/>
  </g>
</svg>
